<svg width="596" height="170" viewBox="0 0 596 170" fill="none" xmlns="http://www.w3.org/2000/svg">
<path d="M220.175 111L208.625 90.6H203.675V111H193.175V58.65H212.825C216.875 58.65 220.325 59.375 223.175 60.825C226.025 62.225 228.15 64.15 229.55 66.6C231 69 231.725 71.7 231.725 74.7C231.725 78.15 230.725 81.275 228.725 84.075C226.725 86.825 223.75 88.725 219.8 89.775L232.325 111H220.175ZM203.675 82.725H212.45C215.3 82.725 217.425 82.05 218.825 80.7C220.225 79.3 220.925 77.375 220.925 74.925C220.925 72.525 220.225 70.675 218.825 69.375C217.425 68.025 215.3 67.35 212.45 67.35H203.675V82.725ZM280.447 69.45V111H269.872V105.75C268.522 107.55 266.747 108.975 264.547 110.025C262.397 111.025 260.047 111.525 257.497 111.525C254.247 111.525 251.372 110.85 248.872 109.5C246.372 108.1 244.397 106.075 242.947 103.425C241.547 100.725 240.847 97.525 240.847 93.825V69.45H251.347V92.325C251.347 95.625 252.172 98.175 253.822 99.975C255.472 101.725 257.722 102.6 260.572 102.6C263.472 102.6 265.747 101.725 267.397 99.975C269.047 98.175 269.872 95.625 269.872 92.325V69.45H280.447ZM313.832 68.85C318.782 68.85 322.782 70.425 325.832 73.575C328.882 76.675 330.407 81.025 330.407 86.625V111H319.907V88.05C319.907 84.75 319.082 82.225 317.432 80.475C315.782 78.675 313.532 77.775 310.682 77.775C307.782 77.775 305.482 78.675 303.782 80.475C302.132 82.225 301.307 84.75 301.307 88.05V111H290.807V69.45H301.307V74.625C302.707 72.825 304.482 71.425 306.632 70.425C308.832 69.375 311.232 68.85 313.832 68.85Z" fill="#0F172A"/>
<path d="M376.842 74.4C375.642 72.2 373.992 70.525 371.892 69.375C369.792 68.225 367.342 67.65 364.542 67.65C361.442 67.65 358.692 68.35 356.292 69.75C353.892 71.15 352.017 73.15 350.667 75.75C349.317 78.35 348.642 81.35 348.642 84.75C348.642 88.25 349.317 91.3 350.667 93.9C352.067 96.5 353.992 98.5 356.442 99.9C358.892 101.3 361.742 102 364.992 102C368.992 102 372.267 100.95 374.817 98.85C377.367 96.7 379.042 93.725 379.842 89.925H361.842V81.9H390.192V91.05C389.492 94.7 387.992 98.075 385.692 101.175C383.392 104.275 380.417 106.775 376.767 108.675C373.167 110.525 369.117 111.45 364.617 111.45C359.567 111.45 354.992 110.325 350.892 108.075C346.842 105.775 343.642 102.6 341.292 98.55C338.992 94.5 337.842 89.9 337.842 84.75C337.842 79.6 338.992 75 341.292 70.95C343.642 66.85 346.842 63.675 350.892 61.425C354.992 59.125 359.542 57.975 364.542 57.975C370.442 57.975 375.567 59.425 379.917 62.325C384.267 65.175 387.267 69.2 388.917 74.4H376.842ZM437.185 69.45V111H426.61V105.75C425.26 107.55 423.485 108.975 421.285 110.025C419.135 111.025 416.785 111.525 414.235 111.525C410.985 111.525 408.11 110.85 405.61 109.5C403.11 108.1 401.135 106.075 399.685 103.425C398.285 100.725 397.585 97.525 397.585 93.825V69.45H408.085V92.325C408.085 95.625 408.91 98.175 410.56 99.975C412.21 101.725 414.46 102.6 417.31 102.6C420.21 102.6 422.485 101.725 424.135 99.975C425.785 98.175 426.61 95.625 426.61 92.325V69.45H437.185ZM452.87 64.5C451.02 64.5 449.47 63.925 448.22 62.775C447.02 61.575 446.42 60.1 446.42 58.35C446.42 56.6 447.02 55.15 448.22 54C449.47 52.8 451.02 52.2 452.87 52.2C454.72 52.2 456.245 52.8 457.445 54C458.695 55.15 459.32 56.6 459.32 58.35C459.32 60.1 458.695 61.575 457.445 62.775C456.245 63.925 454.72 64.5 452.87 64.5ZM458.045 69.45V111H447.545V69.45H458.045ZM465.719 90.075C465.719 85.875 466.544 82.15 468.194 78.9C469.894 75.65 472.194 73.15 475.094 71.4C477.994 69.65 481.219 68.775 484.769 68.775C487.469 68.775 490.044 69.375 492.494 70.575C494.944 71.725 496.894 73.275 498.344 75.225V55.5H508.994V111H498.344V104.85C497.044 106.9 495.219 108.55 492.869 109.8C490.519 111.05 487.794 111.675 484.694 111.675C481.194 111.675 477.994 110.775 475.094 108.975C472.194 107.175 469.894 104.65 468.194 101.4C466.544 98.1 465.719 94.325 465.719 90.075ZM498.419 90.225C498.419 87.675 497.919 85.5 496.919 83.7C495.919 81.85 494.569 80.45 492.869 79.5C491.169 78.5 489.344 78 487.394 78C485.444 78 483.644 78.475 481.994 79.425C480.344 80.375 478.994 81.775 477.944 83.625C476.944 85.425 476.444 87.575 476.444 90.075C476.444 92.575 476.944 94.775 477.944 96.675C478.994 98.525 480.344 99.95 481.994 100.95C483.694 101.95 485.494 102.45 487.394 102.45C489.344 102.45 491.169 101.975 492.869 101.025C494.569 100.025 495.919 98.625 496.919 96.825C497.919 94.975 498.419 92.775 498.419 90.225ZM557.874 89.325C557.874 90.825 557.774 92.175 557.574 93.375H527.199C527.449 96.375 528.499 98.725 530.349 100.425C532.199 102.125 534.474 102.975 537.174 102.975C541.074 102.975 543.849 101.3 545.499 97.95H556.824C555.624 101.95 553.324 105.25 549.924 107.85C546.524 110.4 542.349 111.675 537.399 111.675C533.399 111.675 529.799 110.8 526.599 109.05C523.449 107.25 520.974 104.725 519.174 101.475C517.424 98.225 516.549 94.475 516.549 90.225C516.549 85.925 517.424 82.15 519.174 78.9C520.924 75.65 523.374 73.15 526.524 71.4C529.674 69.65 533.299 68.775 537.399 68.775C541.349 68.775 544.874 69.625 547.974 71.325C551.124 73.025 553.549 75.45 555.249 78.6C556.999 81.7 557.874 85.275 557.874 89.325ZM546.999 86.325C546.949 83.625 545.974 81.475 544.074 79.875C542.174 78.225 539.849 77.4 537.099 77.4C534.499 77.4 532.299 78.2 530.499 79.8C528.749 81.35 527.674 83.525 527.274 86.325H546.999Z" fill="#FFA941"/>
<rect x="35" y="23" width="126" height="124" rx="40" fill="#FFA941"/>
<path d="M97.9998 51.3C116.996 51.3 132.3 66.4408 132.3 85.0002C132.299 103.56 116.996 118.7 97.9998 118.7C79.0035 118.7 63.7001 103.559 63.7 85.0002C63.7 66.4408 79.0035 51.3001 97.9998 51.3Z" stroke="white" stroke-width="7"/>
<path d="M103.455 91.6008L86.3373 99.0928C84.6451 99.8335 82.9187 98.125 83.6808 96.4637L91.3728 79.6962C91.5735 79.2588 91.9285 78.9078 92.372 78.7082L109.589 70.9619C111.282 70.2002 113.03 71.9108 112.265 73.5811L104.473 90.6029C104.27 91.0474 103.907 91.4026 103.455 91.6008Z" stroke="white" stroke-width="5"/>
</svg>
