<svg width="861" height="53" viewBox="0 0 861 53" fill="none" xmlns="http://www.w3.org/2000/svg">
<g clip-path="url(#clip0_76_201)">
<rect width="861" height="53" rx="26.5" fill="white"/>
<circle cx="34.801" cy="23.0544" r="6.9507" transform="rotate(8.63562 34.801 23.0544)" fill="white" stroke="#B5B5B5" stroke-width="2"/>
<path d="M40.2778 28.4625L49.3908 37.3556" stroke="#B5B5B5" stroke-width="2" stroke-linecap="round"/>
<rect x="733.5" y="9.5" width="115" height="34" rx="17" fill="#FFA941" fill-opacity="0.1" stroke="#FFA941"/>
<path d="M749.278 32V20.3636H753.426C754.328 20.3636 755.076 20.5189 755.67 20.8295C756.269 21.1402 756.716 21.5701 757.011 22.1193C757.307 22.6648 757.455 23.2955 757.455 24.0114C757.455 24.7235 757.305 25.3504 757.006 25.892C756.71 26.4299 756.263 26.8485 755.665 27.1477C755.07 27.447 754.322 27.5966 753.42 27.5966H750.278V26.0852H753.261C753.83 26.0852 754.292 26.0038 754.648 25.8409C755.008 25.678 755.271 25.4413 755.438 25.1307C755.604 24.8201 755.688 24.447 755.688 24.0114C755.688 23.572 755.602 23.1913 755.432 22.8693C755.265 22.5473 755.002 22.3011 754.642 22.1307C754.286 21.9564 753.818 21.8693 753.239 21.8693H751.034V32H749.278ZM755.023 26.75L757.898 32H755.898L753.08 26.75H755.023ZM763.107 32.1761C762.247 32.1761 761.506 31.9924 760.885 31.625C760.268 31.2538 759.79 30.733 759.453 30.0625C759.12 29.3883 758.953 28.5985 758.953 27.6932C758.953 26.7992 759.12 26.0114 759.453 25.3295C759.79 24.6477 760.26 24.1155 760.862 23.733C761.468 23.3504 762.177 23.1591 762.987 23.1591C763.48 23.1591 763.957 23.2405 764.419 23.4034C764.881 23.5663 765.296 23.822 765.663 24.1705C766.031 24.5189 766.321 24.9716 766.533 25.5284C766.745 26.0814 766.851 26.7538 766.851 27.5455V28.1477H759.913V26.875H765.186C765.186 26.428 765.095 26.0322 764.913 25.6875C764.732 25.339 764.476 25.0644 764.146 24.8636C763.821 24.6629 763.438 24.5625 762.999 24.5625C762.521 24.5625 762.105 24.6799 761.749 24.9148C761.396 25.1458 761.124 25.4489 760.93 25.8239C760.741 26.1951 760.646 26.5985 760.646 27.0341V28.0284C760.646 28.6117 760.749 29.108 760.953 29.517C761.161 29.9261 761.451 30.2386 761.822 30.4545C762.194 30.6667 762.627 30.7727 763.124 30.7727C763.446 30.7727 763.739 30.7273 764.004 30.6364C764.269 30.5417 764.499 30.4015 764.692 30.2159C764.885 30.0303 765.033 29.8011 765.135 29.5284L766.743 29.8182C766.614 30.2917 766.383 30.7064 766.05 31.0625C765.72 31.4148 765.305 31.6894 764.805 31.8864C764.309 32.0795 763.743 32.1761 763.107 32.1761ZM772.412 32.1761C771.567 32.1761 770.84 31.9848 770.23 31.6023C769.624 31.2159 769.158 30.6837 768.832 30.0057C768.507 29.3277 768.344 28.5511 768.344 27.6761C768.344 26.7898 768.51 26.0076 768.844 25.3295C769.177 24.6477 769.647 24.1155 770.253 23.733C770.859 23.3504 771.573 23.1591 772.395 23.1591C773.058 23.1591 773.649 23.2822 774.168 23.5284C774.687 23.7708 775.105 24.1117 775.423 24.5511C775.745 24.9905 775.937 25.5038 775.997 26.0909H774.344C774.253 25.6818 774.045 25.3295 773.719 25.0341C773.397 24.7386 772.965 24.5909 772.423 24.5909C771.95 24.5909 771.535 24.7159 771.179 24.9659C770.827 25.2121 770.552 25.5644 770.355 26.0227C770.158 26.4773 770.06 27.0152 770.06 27.6364C770.06 28.2727 770.156 28.822 770.349 29.2841C770.543 29.7462 770.815 30.1042 771.168 30.358C771.524 30.6117 771.942 30.7386 772.423 30.7386C772.745 30.7386 773.037 30.6799 773.298 30.5625C773.563 30.4413 773.785 30.2689 773.963 30.0455C774.145 29.822 774.272 29.553 774.344 29.2386H775.997C775.937 29.803 775.753 30.3068 775.446 30.75C775.139 31.1932 774.728 31.5417 774.213 31.7955C773.702 32.0492 773.101 32.1761 772.412 32.1761ZM779.513 26.8182V32H777.814V20.3636H779.49V24.6932H779.598C779.803 24.2235 780.115 23.8504 780.536 23.5739C780.956 23.2973 781.505 23.1591 782.183 23.1591C782.782 23.1591 783.304 23.2822 783.751 23.5284C784.202 23.7746 784.551 24.142 784.797 24.6307C785.047 25.1155 785.172 25.7216 785.172 26.4489V32H783.473V26.6534C783.473 26.0133 783.308 25.517 782.979 25.1648C782.649 24.8087 782.191 24.6307 781.604 24.6307C781.202 24.6307 780.842 24.7159 780.524 24.8864C780.21 25.0568 779.962 25.3068 779.78 25.6364C779.602 25.9621 779.513 26.3561 779.513 26.8182ZM791.2 32.1761C790.34 32.1761 789.6 31.9924 788.979 31.625C788.361 31.2538 787.884 30.733 787.547 30.0625C787.214 29.3883 787.047 28.5985 787.047 27.6932C787.047 26.7992 787.214 26.0114 787.547 25.3295C787.884 24.6477 788.354 24.1155 788.956 23.733C789.562 23.3504 790.27 23.1591 791.081 23.1591C791.573 23.1591 792.051 23.2405 792.513 23.4034C792.975 23.5663 793.39 23.822 793.757 24.1705C794.125 24.5189 794.414 24.9716 794.626 25.5284C794.839 26.0814 794.945 26.7538 794.945 27.5455V28.1477H788.007V26.875H793.28C793.28 26.428 793.189 26.0322 793.007 25.6875C792.825 25.339 792.57 25.0644 792.24 24.8636C791.914 24.6629 791.532 24.5625 791.092 24.5625C790.615 24.5625 790.198 24.6799 789.842 24.9148C789.49 25.1458 789.217 25.4489 789.024 25.8239C788.835 26.1951 788.74 26.5985 788.74 27.0341V28.0284C788.74 28.6117 788.842 29.108 789.047 29.517C789.255 29.9261 789.545 30.2386 789.916 30.4545C790.287 30.6667 790.721 30.7727 791.217 30.7727C791.539 30.7727 791.833 30.7273 792.098 30.6364C792.363 30.5417 792.592 30.4015 792.786 30.2159C792.979 30.0303 793.126 29.8011 793.229 29.5284L794.837 29.8182C794.708 30.2917 794.477 30.7064 794.143 31.0625C793.814 31.4148 793.399 31.6894 792.899 31.8864C792.403 32.0795 791.837 32.1761 791.2 32.1761ZM796.83 32V23.2727H798.472V24.6591H798.562C798.722 24.1894 799.002 23.8201 799.403 23.5511C799.809 23.2784 800.267 23.142 800.778 23.142C800.884 23.142 801.009 23.1458 801.153 23.1534C801.301 23.161 801.417 23.1705 801.5 23.1818V24.8068C801.432 24.7879 801.311 24.767 801.136 24.7443C800.962 24.7178 800.788 24.7045 800.614 24.7045C800.212 24.7045 799.854 24.7898 799.54 24.9602C799.229 25.1269 798.983 25.3598 798.801 25.6591C798.619 25.9545 798.528 26.2917 798.528 26.6705V32H796.83ZM806.334 32.1761C805.489 32.1761 804.762 31.9848 804.152 31.6023C803.546 31.2159 803.08 30.6837 802.754 30.0057C802.429 29.3277 802.266 28.5511 802.266 27.6761C802.266 26.7898 802.432 26.0076 802.766 25.3295C803.099 24.6477 803.569 24.1155 804.175 23.733C804.781 23.3504 805.495 23.1591 806.317 23.1591C806.98 23.1591 807.571 23.2822 808.089 23.5284C808.608 23.7708 809.027 24.1117 809.345 24.5511C809.667 24.9905 809.858 25.5038 809.919 26.0909H808.266C808.175 25.6818 807.966 25.3295 807.641 25.0341C807.319 24.7386 806.887 24.5909 806.345 24.5909C805.872 24.5909 805.457 24.7159 805.101 24.9659C804.749 25.2121 804.474 25.5644 804.277 26.0227C804.08 26.4773 803.982 27.0152 803.982 27.6364C803.982 28.2727 804.078 28.822 804.271 29.2841C804.464 29.7462 804.737 30.1042 805.089 30.358C805.446 30.6117 805.864 30.7386 806.345 30.7386C806.667 30.7386 806.959 30.6799 807.22 30.5625C807.485 30.4413 807.707 30.2689 807.885 30.0455C808.067 29.822 808.194 29.553 808.266 29.2386H809.919C809.858 29.803 809.675 30.3068 809.368 30.75C809.061 31.1932 808.65 31.5417 808.135 31.7955C807.624 32.0492 807.023 32.1761 806.334 32.1761ZM813.435 26.8182V32H811.736V20.3636H813.412V24.6932H813.52C813.724 24.2235 814.037 23.8504 814.457 23.5739C814.878 23.2973 815.427 23.1591 816.105 23.1591C816.704 23.1591 817.226 23.2822 817.673 23.5284C818.124 23.7746 818.473 24.142 818.719 24.6307C818.969 25.1155 819.094 25.7216 819.094 26.4489V32H817.395V26.6534C817.395 26.0133 817.23 25.517 816.901 25.1648C816.571 24.8087 816.113 24.6307 815.526 24.6307C815.124 24.6307 814.764 24.7159 814.446 24.8864C814.132 25.0568 813.884 25.3068 813.702 25.6364C813.524 25.9621 813.435 26.3561 813.435 26.8182ZM825.122 32.1761C824.262 32.1761 823.522 31.9924 822.901 31.625C822.283 31.2538 821.806 30.733 821.469 30.0625C821.135 29.3883 820.969 28.5985 820.969 27.6932C820.969 26.7992 821.135 26.0114 821.469 25.3295C821.806 24.6477 822.276 24.1155 822.878 23.733C823.484 23.3504 824.192 23.1591 825.003 23.1591C825.495 23.1591 825.973 23.2405 826.435 23.4034C826.897 23.5663 827.312 23.822 827.679 24.1705C828.046 24.5189 828.336 24.9716 828.548 25.5284C828.76 26.0814 828.866 26.7538 828.866 27.5455V28.1477H821.929V26.875H827.202C827.202 26.428 827.111 26.0322 826.929 25.6875C826.747 25.339 826.491 25.0644 826.162 24.8636C825.836 24.6629 825.454 24.5625 825.014 24.5625C824.537 24.5625 824.12 24.6799 823.764 24.9148C823.412 25.1458 823.139 25.4489 822.946 25.8239C822.757 26.1951 822.662 26.5985 822.662 27.0341V28.0284C822.662 28.6117 822.764 29.108 822.969 29.517C823.177 29.9261 823.467 30.2386 823.838 30.4545C824.209 30.6667 824.643 30.7727 825.139 30.7727C825.461 30.7727 825.755 30.7273 826.02 30.6364C826.285 30.5417 826.514 30.4015 826.707 30.2159C826.901 30.0303 827.048 29.8011 827.151 29.5284L828.759 29.8182C828.63 30.2917 828.399 30.7064 828.065 31.0625C827.736 31.4148 827.321 31.6894 826.821 31.8864C826.325 32.0795 825.759 32.1761 825.122 32.1761ZM830.751 32V23.2727H832.393V24.6591H832.484C832.643 24.1894 832.924 23.8201 833.325 23.5511C833.731 23.2784 834.189 23.142 834.7 23.142C834.806 23.142 834.931 23.1458 835.075 23.1534C835.223 23.161 835.339 23.1705 835.422 23.1818V24.8068C835.354 24.7879 835.232 24.767 835.058 24.7443C834.884 24.7178 834.71 24.7045 834.536 24.7045C834.134 24.7045 833.776 24.7898 833.462 24.9602C833.151 25.1269 832.905 25.3598 832.723 25.6591C832.541 25.9545 832.45 26.2917 832.45 26.6705V32H830.751Z" fill="#FFA941"/>
</g>
<defs>
<clipPath id="clip0_76_201">
<rect width="861" height="53" fill="white"/>
</clipPath>
</defs>
</svg>
